<?xml version="1.0" encoding="utf-8"?>
<!-- Generator: Adobe Illustrator 23.1.0, SVG Export Plug-In . SVG Version: 6.00 Build 0)  -->
<svg version="1.1" id="Layer_1" xmlns="http://www.w3.org/2000/svg" xmlns:xlink="http://www.w3.org/1999/xlink" x="0px" y="0px"
	 viewBox="0 0 1000 1000" style="enable-background:new 0 0 1000 1000;" xml:space="preserve">
<style type="text/css">
	.st0{fill:#FFFFFF;}
</style>
<g>
	<g>
		<path class="st0" d="M0,1000.02C0,666.68,0,333.34,0,0c333.33,0,666.67,0,1000,0c0,333.34,0,666.68,0,1000.02
			c-1.5,0.02-3,0.05-4.5,0.05c-330.34,0-660.67,0-991.01,0C3,1000.06,1.5,1000.03,0,1000.02z M375.65,721.12
			c2.31,11.73,7.92,17.03,18.31,17.04c70.99,0.05,141.98,0.04,212.96,0c9.94-0.01,15.62-4.84,18.07-14.58
			c0.32-1.28,1.61-2.83,2.82-3.29c10.57-4.06,14.68-9.75,14.68-21.14c0.02-138.64,0.04-277.29,0.02-415.93
			c0-13.61-7.8-21.37-21.43-21.37c-80.65-0.02-161.31-0.02-241.96,0c-13.96,0-21.65,7.7-21.65,21.66
			c-0.01,138.14,0,276.29,0.02,414.43C357.5,711.7,361.98,717.41,375.65,721.12z"/>
		<path d="M0,1000.02c1.5,0.02,3,0.05,4.5,0.05c330.34,0,660.67,0,991.01,0c1.5,0,3-0.03,4.5-0.05c0,26.66,0,53.31,0,79.98
			c-333.33,0-666.67,0-1000,0C0,1053.33,0,1026.67,0,1000.02z M142.35,1033.74c-0.51-1.49-0.62-3.32-1.3-3.56
			c-2.75-0.98-5.67-2-8.52-1.99c-3.34,0.02-6.01,1.93-6.58,5.63c-0.59,3.79,1.53,5.93,4.78,7.17c2.16,0.83,4.52,1.25,6.56,2.29
			c1.14,0.59,2.63,2.17,2.52,3.13c-0.15,1.31-1.52,3.31-2.66,3.53c-2.65,0.52-5.48,0.03-8.22,0.19c-1.28,0.08-2.52,0.71-3.78,1.1
			c0.2,0.84,0.4,1.68,0.6,2.53c4.34-0.23,8.91,0.26,12.95-0.97c2.17-0.66,4.59-4.17,4.77-6.55c0.15-2.04-2.39-4.73-4.37-6.35
			c-1.68-1.37-4.45-1.33-6.42-2.47c-1.32-0.76-2.09-2.47-3.11-3.75c1.49-0.84,3.02-2.46,4.45-2.36
			C136.53,1031.48,138.98,1032.69,142.35,1033.74z M209.94,1053.79c-2.98-4.22-5.53-7.85-8.18-11.61c2.55-2.67,4.91-5.13,7.27-7.59
			c-0.36-0.47-0.73-0.95-1.09-1.42c-3.19,2.14-6.37,4.28-9.55,6.41c-2.36-11.08-2.36-11.08-4.13-11.16c0,8.44,0,16.87,0,25.75
			c6.21-0.93,1.52-6.73,4.43-8.82C203.19,1046.91,202.5,1055.06,209.94,1053.79z M174.48,1043.96c-0.03-6.15-3.74-10.15-9.3-10
			c-5.27,0.14-8.71,4.14-8.7,10.1c0.02,5.93,3.52,9.91,8.8,10.01C170.81,1054.17,174.51,1050.11,174.48,1043.96z M176.83,1043.6
			c-0.18,7.29,5.38,12.15,11.77,10.15c0.87-0.27,1.49-1.36,2.22-2.07c-0.89-0.38-1.8-1.12-2.67-1.07c-5.22,0.25-7.75-1.75-7.86-6.42
			c-0.12-4.83,2.35-6.82,8.04-6.66c0.78,0.02,1.59-0.57,2.38-0.88c-0.59-0.77-1.03-1.96-1.81-2.26
			C182.89,1032.13,177,1036.68,176.83,1043.6z M50.98,1028.59c-0.53-0.23-1.06-0.46-1.59-0.68c-2.77,7.61-5.55,15.22-8.64,23.71
			c-3.2-8.54-6.06-16.16-8.91-23.78c-0.57,0.25-1.14,0.49-1.7,0.74c2.73,7.75,5.42,15.53,8.25,23.24c0.32,0.88,1.35,1.81,2.24,2.07
			c0.51,0.15,1.8-0.86,2.07-1.59C45.54,1044.42,48.24,1036.5,50.98,1028.59z M65.11,1045.06c0.13-7.6-2.72-11.5-7.66-11.03
			c-4.23,0.4-6.37,3.26-7.33,7.06c-1.25,4.93,0.46,9.92,4.18,11.77c3.67,1.82,7.39,2.01,11.44-1.27
			c-11.58,0.62-13.05-0.13-13.24-6.52c1.98,0,3.96,0,5.94,0C60.58,1045.06,62.71,1045.06,65.11,1045.06z M93.99,1043.98
			c-0.03,6.07,3.71,10.16,9.2,10.07c5.23-0.09,8.81-4.14,8.81-9.96c0-6.05-3.8-10.21-9.21-10.1
			C97.59,1034.09,94.02,1038.15,93.99,1043.98z M155.07,1051.55c-8.31-2.84-3.64-9.28-4.95-13.61c2.01-0.97,3.47-1.68,6.19-3
			c-3.14-0.82-4.64-1.22-6.22-1.63c0-1.47,0.17-2.67-0.07-3.78c-0.13-0.58-0.98-1.37-1.52-1.38c-0.55-0.01-1.61,0.82-1.61,1.28
			c0.02,6.81-0.3,13.68,0.47,20.41C147.8,1053.74,152.31,1054.65,155.07,1051.55z M941.25,1052.04c3.95,1.33,6.16,0.09,7.38-4.12
			c1.14-3.91-0.46-8.42-3.48-8.62c-1.56-0.1-4.31,1.24-4.59,2.41c-0.39,1.58,0.78,3.81,1.86,5.37c0.5,0.73,2.35,0.52,5.29,1.02
			C944.87,1049.83,943.17,1050.87,941.25,1052.04z M82.09,1035.76c-4.42-2.84-9.11-2.12-11.93,1.85c-3.06,4.3-2.33,11.4,1.51,14.57
			c3.16,2.61,8.01,2.55,10.61-0.13c-8.89,0.08-11.57-1.55-11.96-7.33C69.89,1038.6,72.33,1036.74,82.09,1035.76z M863.18,1052.75
			c0.38,0.08,0.77,0.15,1.15,0.23c0.22-1.37,0.15-2.87,0.72-4.08c0.68-1.43,1.9-2.61,2.88-3.9c0.67,1.26,1.54,2.47,1.96,3.81
			c0.39,1.27,0.3,2.68,0.42,4.03c0.41,0.02,0.82,0.04,1.23,0.06c0.18-1.81,0.16-3.68,0.62-5.41c0.24-0.92,1.34-1.6,2.04-2.4
			c0.57,0.83,1.47,1.58,1.66,2.49c0.36,1.72,0.31,3.53,0.43,5.3c0.5-0.03,1-0.07,1.49-0.1c0-2.36,0.38-4.82-0.16-7.05
			c-0.27-1.1-2.18-2.41-3.46-2.53c-3.61-0.34-7.28-0.12-10.99-0.12C863.18,1046.53,863.18,1049.64,863.18,1052.75z M907.93,1046.08
			c0.29,3.2,0.55,6.73,4.8,6.86c4.54,0.13,5.22-3.43,5.22-6.94c0-3.51-0.69-7.07-5.25-6.9
			C908.46,1039.25,908.16,1042.76,907.93,1046.08z M85.84,1027.07c0.51,8.82,0.8,16.41,1.56,23.96c0.11,1.09,2.44,1.97,3.75,2.94
			c-4.34-5.82-4.26-16.44,2.09-20C85.7,1035.79,89.87,1029.81,85.84,1027.07z M905.69,1040.05c-0.07-0.36-0.14-0.73-0.21-1.09
			c-1.95,0.5-4.72,0.39-5.66,1.64c-1.55,2.07-2.6,5.02-2.6,7.6c0,3.14,2.47,5.42,5.74,4.6c1.57-0.39,3.67-2.74,3.72-4.27
			c0.11-3.23-2.41-4.4-5.55-3.99c-0.4,0.05-0.83-0.15-1.25-0.24c-0.15-0.41-0.3-0.82-0.45-1.23
			C901.51,1042.07,903.6,1041.06,905.69,1040.05z M951.71,1043.69c2.57,1.76,4.35,2.98,6.13,4.21c-1.81,1.29-3.62,2.58-5.8,4.14
			c1.14,0.17,3.2,1.07,4.72,0.51c1.37-0.51,3.31-3.1,2.97-3.93c-1.09-2.62-3.13-4.84-4.9-7.36c0.73-0.22,2.39-0.73,4.04-1.23
			c-0.07-0.23-0.15-0.46-0.22-0.69c-2.17,0-4.34,0-6.61,0C951.88,1041.47,951.75,1043.27,951.71,1043.69z M962.71,1043.71
			c2.55,1.74,4.35,2.97,6.14,4.19c-1.81,1.3-3.63,2.59-5.81,4.15c1.15,0.17,3.21,1.06,4.73,0.5c1.37-0.51,3.32-3.11,2.97-3.94
			c-1.09-2.62-3.13-4.84-4.91-7.36c0.74-0.22,2.37-0.72,4-1.21c-0.06-0.24-0.12-0.49-0.19-0.73c-2.17,0-4.34,0-6.6,0
			C962.88,1041.45,962.74,1043.25,962.71,1043.71z M748.51,1051.69c-2.5-0.74-4.5-1.33-6.5-1.92c0.11-0.47,0.22-0.95,0.32-1.42
			c2.16-0.21,4.31-0.41,6.66-0.64c-0.58-3.88-2.55-5.47-5.89-4.37c-3.02,1-3.94,3.64-2.71,6.42
			C741.93,1053.17,744.63,1053.96,748.51,1051.69z M795.78,1040.79c-3.03-2.33-5.92-2.71-7.53-0.38c-4.52,6.53,5.2,5.08,5.6,10.03
			c-2.22,0.13-4.4,0.25-7.73,0.45c3.38,2.34,6.52,3.46,8.47,0.78c4.68-6.43-4.66-5.35-5.68-9.86
			C790.93,1041.51,792.82,1041.23,795.78,1040.79z M738.73,1039.5c-0.48-0.2-0.95-0.41-1.43-0.61c-1.36,3.27-2.72,6.53-4.35,10.45
			c-1.61-4.05-2.88-7.25-4.16-10.46c-0.5,0.2-1,0.4-1.5,0.6c1.64,4.57,3.27,9.15,4.91,13.72c0.54,0.01,1.08,0.02,1.62,0.03
			C735.46,1048.66,737.09,1044.08,738.73,1039.5z M115.44,1035.38c0,5.59,0,11.99,0,18.39c3.78-5.94-3.19-15.51,7.24-19.22
			C120.41,1034.81,118.15,1035.07,115.44,1035.38z M828.36,1048c1.85,1.99,3.29,3.55,4.55,4.91c-0.35-3.39-0.66-6.4-0.96-9.32
			c-0.6,0.42-2.02,1.41-3.55,2.48c-0.41-2.64-0.74-4.8-1.08-6.95c-0.31,0.07-0.62,0.14-0.94,0.21c0,4.48,0,8.96,0,13.44
			c0.35,0.04,0.7,0.08,1.05,0.12C827.7,1051.43,827.98,1049.98,828.36,1048z M861.7,1049.02c-0.01-0.74-0.02-1.49-0.03-2.23
			c-1.98-1.26-4.01-3.56-5.91-3.46c-1.67,0.09-4.62,3.12-4.42,4.45c0.3,1.93,2.78,4.66,4.6,4.9
			C857.68,1052.9,859.77,1050.35,861.7,1049.02z M807.69,1053.75c0.77,0.01,1.54,0.03,2.31,0.04c1.31-1.94,3.82-4.05,3.59-5.79
			c-0.25-1.85-2.94-4.3-4.89-4.64c-1.26-0.22-4.28,2.77-4.39,4.46C804.19,1049.72,806.46,1051.77,807.69,1053.75z M778.73,1048.93
			c-0.03-0.76-0.06-1.52-0.09-2.27c-2-1.21-4.09-3.47-5.98-3.32c-1.67,0.14-4.55,3.21-4.32,4.55c0.33,1.92,2.87,4.58,4.71,4.78
			C774.78,1052.86,776.82,1050.29,778.73,1048.93z M935.94,1041.3c-1.7,3.84-3.35,7.57-5.01,11.29c0.52,0.23,1.04,0.45,1.56,0.68
			c2.14-4.53,4.29-9.05,6.59-13.91c-3.55,0-6.19,0-8.82,0c-0.04,0.3-0.07,0.61-0.11,0.91
			C931.94,1040.58,933.74,1040.9,935.94,1041.3z M920.94,1052.46c0.53,0.25,1.07,0.5,1.6,0.74c2.11-4.5,4.21-9.01,6.48-13.86
			c-3.43,0-6.09,0-8.75,0c-0.04,0.3-0.08,0.61-0.12,0.91c1.81,0.33,3.62,0.65,5.81,1.05C924.25,1045.1,922.6,1048.78,920.94,1052.46
			z M887.85,1042.17c3.75,1.6,4.11,6.08,1.4,10.63c1.85,0,3.6,0,4.48,0c-0.41-4.68-0.8-9.16-1.26-14.54
			C890.66,1039.8,889.49,1040.78,887.85,1042.17z M758.35,1043.62c-1.82-1.47-4.59-1.16-6.15,1.5c-0.9,1.54-0.78,4.66,0.24,6.12
			c1.77,2.52,4.58,2.61,6.36,0.87c-1.96-1.3-3.84-2.56-5.72-3.81C754.79,1046.78,756.5,1045.26,758.35,1043.62z M823.87,1052.25
			c-2.13-1.5-3.96-2.8-5.79-4.1c1.78-1.45,3.56-2.9,5.49-4.47c-1.94-1.36-4.66-1.28-6.19,1.15c-0.97,1.54-1.07,4.62-0.14,6.16
			C818.89,1053.71,821.74,1053.67,823.87,1052.25z M848.43,1043.61c-1.98-1.34-4.76-1.17-6.29,1.6c-0.86,1.56-0.66,4.65,0.38,6.09
			c1.75,2.42,4.52,2.59,6.22,0.83c-1.97-1.36-3.82-2.64-5.68-3.93C844.73,1046.79,846.37,1045.38,848.43,1043.61z M799.92,1041.67
			c-0.8,0.07-1.59,0.14-2.39,0.21c0.3,3.12,0.41,6.29,1.02,9.35c0.16,0.77,1.92,1.22,2.45,1.53
			C800.6,1048.64,800.26,1045.15,799.92,1041.67z M764.04,1041.76c-0.52,0.05-1.03,0.09-1.55,0.14c-2.22,5.23-0.6,10.22,2.51,10.41
			C764.68,1048.81,764.36,1045.28,764.04,1041.76z M784.16,1043.46c-0.85,0-2.36,0-3.68,0c0,3.19,0,6.28,0,9.36
			c0.17-0.01,0.35-0.01,0.52-0.02C782.01,1049.81,783.02,1046.82,784.16,1043.46z M879.84,1053.08c0.49,0.28,0.99,0.56,1.48,0.83
			c1.55-4.82,3.1-9.64,4.64-14.45c-0.48-0.16-0.95-0.31-1.43-0.47C882.97,1043.69,881.41,1048.38,879.84,1053.08z"/>
		<path d="M375.65,721.12c-13.67-3.71-18.14-9.41-18.15-23.19c-0.02-138.14-0.03-276.29-0.02-414.43c0-13.96,7.7-21.66,21.65-21.66
			c80.65-0.02,161.31-0.02,241.96,0c13.64,0,21.43,7.77,21.43,21.37c0.01,138.64,0,277.29-0.02,415.93
			c0,11.39-4.12,17.08-14.68,21.14c-1.21,0.46-2.5,2.01-2.82,3.29c-2.45,9.74-8.13,14.58-18.07,14.58
			c-70.99,0.04-141.98,0.04-212.96,0C383.57,738.15,377.96,732.85,375.65,721.12z M636.82,389.68c-91.5,0-182.36,0-273.64,0
			c0,2.06,0,3.7,0,5.34c0,101.16-0.01,202.32,0.01,303.49c0,11.29,5.25,16.57,16.47,16.57c80.16,0.01,160.32,0.01,240.49,0
			c11.52,0,16.67-5.23,16.67-16.88c0.01-101,0-201.99,0-302.99C636.82,393.44,636.82,391.66,636.82,389.68z M363.18,383.15
			c91.38,0,182.24,0,273.39,0c0.09-1.73,0.24-3.19,0.24-4.64c0.01-31.49,0.02-62.99,0-94.48c-0.01-11.25-5.2-16.38-16.57-16.38
			c-80.15-0.01-160.3-0.01-240.44,0c-11.61,0-16.62,5.07-16.62,16.82c-0.01,31.16,0,62.32-0.01,93.48
			C363.18,379.58,363.18,381.2,363.18,383.15z M382.31,721.09c0.04,7.35,4.25,11.26,12.2,11.26c70.61,0.03,141.23,0.02,211.84,0.01
			c1.33,0,2.68,0.01,3.98-0.24c5.4-1.02,8.77-5.59,8.15-11.03C539.77,721.09,461.04,721.09,382.31,721.09z"/>
		<path class="st0" d="M142.35,1033.74c-3.37-1.05-5.82-2.26-8.34-2.43c-1.42-0.1-2.96,1.52-4.45,2.36
			c1.02,1.28,1.79,2.99,3.11,3.75c1.97,1.13,4.73,1.09,6.42,2.47c1.99,1.62,4.53,4.31,4.37,6.35c-0.18,2.38-2.6,5.9-4.77,6.55
			c-4.04,1.23-8.6,0.74-12.95,0.97c-0.2-0.84-0.4-1.68-0.6-2.53c1.26-0.38,2.5-1.02,3.78-1.1c2.74-0.16,5.57,0.32,8.22-0.19
			c1.14-0.22,2.5-2.21,2.66-3.53c0.11-0.97-1.38-2.55-2.52-3.13c-2.04-1.04-4.39-1.46-6.56-2.29c-3.25-1.24-5.37-3.38-4.78-7.17
			c0.58-3.7,3.24-5.61,6.58-5.63c2.85-0.01,5.77,1.01,8.52,1.99C141.73,1030.42,141.84,1032.25,142.35,1033.74z"/>
		<path class="st0" d="M209.94,1053.79c-7.44,1.27-6.75-6.88-11.26-8.44c-2.91,2.09,1.78,7.89-4.43,8.82c0-8.88,0-17.31,0-25.75
			c1.77,0.08,1.77,0.08,4.13,11.16c3.18-2.13,6.36-4.27,9.55-6.41c0.36,0.47,0.73,0.95,1.09,1.42c-2.36,2.46-4.71,4.92-7.27,7.59
			C204.4,1045.95,206.96,1049.57,209.94,1053.79z"/>
		<path class="st0" d="M174.48,1043.96c0.03,6.15-3.67,10.21-9.2,10.1c-5.28-0.1-8.78-4.08-8.8-10.01c-0.02-5.96,3.42-9.95,8.7-10.1
			C170.73,1033.81,174.45,1037.81,174.48,1043.96z M170.97,1043.92c-0.35-3.57-1.39-6.86-5.68-6.71c-4.27,0.15-5.25,3.51-5.18,7.09
			c0.06,3.46,1.36,6.48,5.31,6.49C169.7,1050.81,170.69,1047.53,170.97,1043.92z"/>
		<path class="st0" d="M176.83,1043.6c0.17-6.92,6.05-11.47,12.07-9.21c0.78,0.29,1.21,1.48,1.81,2.26c-0.79,0.31-1.6,0.9-2.38,0.88
			c-5.69-0.16-8.15,1.83-8.04,6.66c0.11,4.68,2.65,6.67,7.86,6.42c0.87-0.04,1.78,0.7,2.67,1.07c-0.73,0.71-1.35,1.8-2.22,2.07
			C182.22,1055.75,176.66,1050.9,176.83,1043.6z"/>
		<path class="st0" d="M50.98,1028.59c-2.74,7.91-5.45,15.84-8.29,23.71c-0.26,0.73-1.55,1.74-2.07,1.59
			c-0.89-0.26-1.92-1.19-2.24-2.07c-2.83-7.72-5.52-15.49-8.25-23.24c0.57-0.25,1.14-0.49,1.7-0.74c2.86,7.62,5.71,15.24,8.91,23.78
			c3.09-8.49,5.87-16.1,8.64-23.71C49.93,1028.13,50.46,1028.36,50.98,1028.59z"/>
		<path class="st0" d="M65.11,1045.06c-2.41,0-4.54,0-6.67,0c-1.98,0-3.96,0-5.94,0c0.19,6.4,1.66,7.15,13.24,6.52
			c-4.05,3.28-7.77,3.09-11.44,1.27c-3.73-1.85-5.43-6.84-4.18-11.77c0.96-3.79,3.1-6.65,7.33-7.06
			C62.39,1033.56,65.25,1037.46,65.11,1045.06z M63.14,1043.18c-0.14-4.35-1.22-7.21-5.3-7.16c-4.2,0.05-5.32,3.1-5.73,7.16
			c2.06,0,3.86,0,5.66,0C59.41,1043.17,61.04,1043.18,63.14,1043.18z"/>
		<path class="st0" d="M93.99,1043.98c0.02-5.84,3.6-9.9,8.8-10c5.41-0.11,9.21,4.06,9.21,10.1c0,5.83-3.58,9.87-8.81,9.96
			C97.7,1054.15,93.97,1050.06,93.99,1043.98z M109.93,1044.04c-0.01-4.82-2.7-7.99-6.84-8.08c-4.32-0.09-7.14,3.26-7.02,8.35
			c0.11,4.9,2.81,7.89,7.05,7.81C107.3,1052.04,109.94,1048.91,109.93,1044.04z"/>
		<path class="st0" d="M155.07,1051.55c-2.75,3.1-7.26,2.19-7.71-1.71c-0.78-6.74-0.46-13.6-0.47-20.41c0-0.46,1.06-1.29,1.61-1.28
			c0.54,0.01,1.39,0.8,1.52,1.38c0.24,1.11,0.07,2.31,0.07,3.78c1.58,0.41,3.09,0.81,6.22,1.63c-2.72,1.32-4.18,2.02-6.19,3
			C151.42,1042.27,146.76,1048.71,155.07,1051.55z"/>
		<path class="st0" d="M941.25,1052.04c1.92-1.17,3.62-2.21,6.46-3.94c-2.93-0.51-4.78-0.3-5.29-1.02
			c-1.08-1.55-2.25-3.78-1.86-5.37c0.28-1.16,3.03-2.51,4.59-2.41c3.02,0.2,4.62,4.71,3.48,8.62
			C947.41,1052.14,945.2,1053.37,941.25,1052.04z"/>
		<path class="st0" d="M82.09,1035.76c-9.76,0.98-12.2,2.83-11.78,8.96c0.4,5.77,3.07,7.41,11.96,7.33
			c-2.6,2.68-7.45,2.73-10.61,0.13c-3.84-3.17-4.57-10.27-1.51-14.57C72.98,1033.65,77.67,1032.92,82.09,1035.76z"/>
		<path class="st0" d="M863.18,1052.75c0-3.11,0-6.21,0-9.65c3.71,0,7.38-0.22,10.99,0.12c1.27,0.12,3.19,1.43,3.46,2.53
			c0.54,2.23,0.16,4.69,0.16,7.05c-0.5,0.03-1,0.07-1.49,0.1c-0.12-1.77-0.07-3.58-0.43-5.3c-0.19-0.91-1.08-1.66-1.66-2.49
			c-0.71,0.79-1.8,1.48-2.04,2.4c-0.46,1.73-0.44,3.6-0.62,5.41c-0.41-0.02-0.82-0.04-1.23-0.06c-0.12-1.35-0.03-2.76-0.42-4.03
			c-0.41-1.34-1.29-2.54-1.96-3.81c-0.99,1.29-2.21,2.46-2.88,3.9c-0.57,1.2-0.51,2.71-0.72,4.08
			C863.95,1052.9,863.56,1052.82,863.18,1052.75z"/>
		<path class="st0" d="M907.93,1046.08c0.24-3.32,0.53-6.83,4.77-6.99c4.55-0.17,5.24,3.39,5.25,6.9c0,3.51-0.68,7.08-5.22,6.94
			C908.48,1052.81,908.21,1049.28,907.93,1046.08z M917.07,1046.22c-1.58-2.12-2.72-3.66-3.86-5.19c-1.05,1.54-2.97,3.09-2.94,4.61
			c0.03,1.8,1.72,3.58,2.7,5.37C914.18,1049.59,915.4,1048.16,917.07,1046.22z"/>
		<path class="st0" d="M85.84,1027.07c4.03,2.74-0.14,8.72,7.4,6.91c-6.35,3.56-6.43,14.18-2.09,20c-1.31-0.98-3.64-1.85-3.75-2.94
			C86.65,1043.48,86.35,1035.88,85.84,1027.07z"/>
		<path class="st0" d="M905.69,1040.05c-2.09,1.01-4.17,2.01-6.26,3.02c0.15,0.41,0.3,0.82,0.45,1.23c0.42,0.09,0.85,0.29,1.25,0.24
			c3.14-0.41,5.66,0.76,5.55,3.99c-0.05,1.53-2.15,3.88-3.72,4.27c-3.27,0.82-5.74-1.46-5.74-4.6c0-2.58,1.05-5.53,2.6-7.6
			c0.94-1.26,3.71-1.14,5.66-1.64C905.54,1039.32,905.62,1039.69,905.69,1040.05z M902.37,1052.08c1.13-1.58,2.55-2.88,2.31-3.34
			c-0.56-1.08-1.81-2.19-2.96-2.43c-0.69-0.14-1.7,1.36-2.57,2.12C900.04,1049.43,900.92,1050.43,902.37,1052.08z"/>
		<path class="st0" d="M951.71,1043.69c0.03-0.42,0.17-2.22,0.33-4.36c2.27,0,4.44,0,6.61,0c0.07,0.23,0.15,0.46,0.22,0.69
			c-1.66,0.5-3.31,1.01-4.04,1.23c1.77,2.52,3.81,4.75,4.9,7.36c0.34,0.83-1.6,3.42-2.97,3.93c-1.52,0.56-3.58-0.34-4.72-0.51
			c2.18-1.56,3.99-2.85,5.8-4.14C956.06,1046.68,954.28,1045.46,951.71,1043.69z"/>
		<path class="st0" d="M962.71,1043.71c0.04-0.46,0.18-2.26,0.34-4.4c2.26,0,4.43,0,6.6,0c0.06,0.24,0.12,0.49,0.19,0.73
			c-1.63,0.49-3.27,0.99-4,1.21c1.78,2.52,3.82,4.74,4.91,7.36c0.35,0.83-1.6,3.43-2.97,3.94c-1.51,0.57-3.58-0.33-4.73-0.5
			c2.18-1.56,3.99-2.85,5.81-4.15C967.06,1046.68,965.26,1045.45,962.71,1043.71z"/>
		<path class="st0" d="M748.51,1051.69c-3.88,2.28-6.58,1.48-8.11-1.94c-1.24-2.77-0.32-5.42,2.71-6.42
			c3.33-1.1,5.31,0.49,5.89,4.37c-2.35,0.22-4.5,0.43-6.66,0.64c-0.11,0.47-0.22,0.95-0.32,1.42
			C744.02,1050.35,746.02,1050.95,748.51,1051.69z"/>
		<path class="st0" d="M795.78,1040.79c-2.96,0.44-4.84,0.72-6.86,1.02c1.01,4.51,10.36,3.43,5.68,9.86
			c-1.95,2.68-5.09,1.56-8.47-0.78c3.33-0.19,5.51-0.32,7.73-0.45c-0.4-4.95-10.12-3.5-5.6-10.03
			C789.86,1038.08,792.75,1038.46,795.78,1040.79z"/>
		<path class="st0" d="M738.73,1039.5c-1.64,4.58-3.27,9.16-4.91,13.74c-0.54-0.01-1.08-0.02-1.62-0.03
			c-1.64-4.57-3.27-9.15-4.91-13.72c0.5-0.2,1-0.4,1.5-0.6c1.27,3.2,2.55,6.41,4.16,10.46c1.63-3.92,2.99-7.19,4.35-10.45
			C737.78,1039.09,738.25,1039.29,738.73,1039.5z"/>
		<path class="st0" d="M115.44,1035.38c2.71-0.31,4.98-0.57,7.24-0.83c-10.43,3.71-3.47,13.28-7.24,19.22
			C115.44,1047.37,115.44,1040.97,115.44,1035.38z"/>
		<path class="st0" d="M828.36,1048c-0.38,1.98-0.65,3.44-0.93,4.89c-0.35-0.04-0.7-0.08-1.05-0.12c0-4.48,0-8.96,0-13.44
			c0.31-0.07,0.62-0.14,0.94-0.21c0.34,2.16,0.67,4.32,1.08,6.95c1.53-1.07,2.95-2.06,3.55-2.48c0.3,2.92,0.61,5.94,0.96,9.32
			C831.65,1051.55,830.2,1049.99,828.36,1048z"/>
		<path class="st0" d="M861.7,1049.02c-1.93,1.33-4.02,3.88-5.76,3.65c-1.83-0.24-4.3-2.96-4.6-4.9c-0.21-1.33,2.75-4.35,4.42-4.45
			c1.9-0.11,3.93,2.2,5.91,3.46C861.68,1047.54,861.69,1048.28,861.7,1049.02z M856.26,1052.53c1.25-2.33,2.64-3.75,2.41-4.81
			c-0.24-1.1-2.05-1.85-3.17-2.76c-0.81,1.05-2.31,2.14-2.25,3.13C853.32,1049.29,854.72,1050.4,856.26,1052.53z"/>
		<path class="st0" d="M807.69,1053.75c-1.23-1.98-3.5-4.03-3.38-5.93c0.11-1.69,3.13-4.69,4.39-4.46c1.95,0.35,4.64,2.8,4.89,4.64
			c0.24,1.74-2.28,3.84-3.59,5.79C809.23,1053.78,808.46,1053.77,807.69,1053.75z M809.13,1043.57c-1.48,2.01-3.02,3.19-2.87,4.1
			c0.21,1.25,1.69,2.29,2.62,3.42c0.99-0.92,2.73-1.8,2.78-2.78C811.73,1047.1,810.41,1045.8,809.13,1043.57z"/>
		<path class="st0" d="M778.73,1048.93c-1.9,1.36-3.94,3.93-5.68,3.74c-1.83-0.2-4.38-2.86-4.71-4.78
			c-0.23-1.33,2.65-4.41,4.32-4.55c1.89-0.15,3.98,2.11,5.98,3.32C778.67,1047.41,778.7,1048.17,778.73,1048.93z M777.17,1047.8
			c-2.09-1.33-3.29-2.69-4.47-2.66c-0.89,0.02-2.58,1.94-2.43,2.74c0.23,1.2,1.67,2.87,2.75,3
			C774.01,1050.99,775.22,1049.33,777.17,1047.8z"/>
		<path class="st0" d="M935.94,1041.3c-2.2-0.39-4-0.71-5.79-1.03c0.04-0.3,0.07-0.61,0.11-0.91c2.63,0,5.27,0,8.82,0
			c-2.3,4.86-4.44,9.39-6.59,13.91c-0.52-0.23-1.04-0.45-1.56-0.68C932.59,1048.86,934.24,1045.14,935.94,1041.3z"/>
		<path class="st0" d="M920.94,1052.46c1.66-3.68,3.31-7.35,5.02-11.15c-2.2-0.4-4-0.72-5.81-1.05c0.04-0.3,0.08-0.61,0.12-0.91
			c2.66,0,5.32,0,8.75,0c-2.27,4.85-4.37,9.35-6.48,13.86C922.01,1052.95,921.48,1052.7,920.94,1052.46z"/>
		<path class="st0" d="M887.85,1042.17c1.64-1.39,2.82-2.38,4.62-3.9c0.47,5.38,0.86,9.86,1.26,14.54c-0.88,0-2.63,0-4.48,0
			C891.96,1048.26,891.6,1043.77,887.85,1042.17z"/>
		<path class="st0" d="M758.35,1043.62c-1.85,1.64-3.56,3.16-5.27,4.68c1.88,1.25,3.77,2.51,5.72,3.81
			c-1.78,1.74-4.59,1.65-6.36-0.87c-1.02-1.45-1.14-4.57-0.24-6.12C753.76,1042.46,756.52,1042.15,758.35,1043.62z"/>
		<path class="st0" d="M823.87,1052.25c-2.14,1.42-4.99,1.46-6.63-1.26c-0.93-1.54-0.83-4.62,0.14-6.16
			c1.53-2.43,4.26-2.51,6.19-1.15c-1.94,1.58-3.72,3.02-5.49,4.47C819.92,1049.45,821.75,1050.75,823.87,1052.25z"/>
		<path class="st0" d="M848.43,1043.61c-2.06,1.77-3.71,3.18-5.35,4.6c1.85,1.28,3.71,2.57,5.68,3.93
			c-1.71,1.76-4.47,1.59-6.22-0.83c-1.05-1.44-1.24-4.53-0.38-6.09C843.67,1042.44,846.45,1042.27,848.43,1043.61z"/>
		<path class="st0" d="M799.92,1041.67c0.34,3.49,0.68,6.97,1.09,11.08c-0.53-0.31-2.29-0.75-2.45-1.53
			c-0.62-3.06-0.73-6.22-1.02-9.35C798.33,1041.81,799.12,1041.74,799.92,1041.67z"/>
		<path class="st0" d="M764.04,1041.76c0.32,3.52,0.64,7.04,0.96,10.54c-3.11-0.19-4.73-5.18-2.51-10.41
			C763.01,1041.85,763.52,1041.81,764.04,1041.76z"/>
		<path class="st0" d="M784.16,1043.46c-1.14,3.36-2.15,6.35-3.16,9.34c-0.17,0.01-0.35,0.01-0.52,0.02c0-3.09,0-6.17,0-9.36
			C781.8,1043.46,783.3,1043.46,784.16,1043.46z"/>
		<path class="st0" d="M879.84,1053.08c1.57-4.7,3.13-9.4,4.7-14.09c0.48,0.16,0.95,0.31,1.43,0.47c-1.55,4.82-3.1,9.64-4.64,14.45
			C880.83,1053.64,880.33,1053.36,879.84,1053.08z"/>
		<path class="st0" d="M636.82,389.68c0,1.98,0,3.76,0,5.53c0,101,0,201.99,0,302.99c0,11.65-5.15,16.88-16.67,16.88
			c-80.16,0.01-160.32,0.01-240.49,0c-11.22,0-16.47-5.28-16.47-16.57c-0.01-101.16-0.01-202.32-0.01-303.49c0-1.64,0-3.28,0-5.34
			C454.46,389.68,545.31,389.68,636.82,389.68z M398.1,465.04c0-13.83,0.09-27.67-0.11-41.49c-0.03-1.74-1.61-3.45-2.47-5.18
			c-1.08,1.73-3.08,3.45-3.1,5.19c-0.2,27.33-0.19,54.66-0.01,81.99c0.01,1.8,1.74,5.02,2.88,5.11c3.45,0.29,2.78-2.92,2.78-5.12
			C398.12,492.03,398.1,478.54,398.1,465.04z"/>
		<path class="st0" d="M363.18,383.15c0-1.95,0-3.57,0-5.2c0-31.16-0.01-62.32,0.01-93.48c0-11.75,5.01-16.82,16.62-16.82
			c80.15-0.01,160.3-0.01,240.44,0c11.36,0,16.56,5.12,16.57,16.38c0.02,31.49,0.01,62.99,0,94.48c0,1.46-0.15,2.91-0.24,4.64
			C545.41,383.15,454.55,383.15,363.18,383.15z M398.1,325.25c0-7.98,0.14-15.97-0.12-23.95c-0.05-1.54-1.65-3.03-2.53-4.54
			c-1.06,1.55-3.01,3.1-3.03,4.66c-0.23,16.13-0.21,32.27-0.01,48.4c0.02,1.52,1.74,3.02,2.68,4.53c1.01-1.55,2.84-3.08,2.89-4.66
			C398.27,341.55,398.11,333.4,398.1,325.25z"/>
		<path class="st0" d="M382.31,721.09c78.73,0,157.46,0,236.17,0c0.62,5.43-2.75,10.01-8.15,11.03c-1.3,0.25-2.65,0.24-3.98,0.24
			c-70.61,0.01-141.23,0.02-211.84-0.01C386.56,732.34,382.35,728.44,382.31,721.09z"/>
		<path d="M170.97,1043.92c-0.28,3.6-1.28,6.89-5.55,6.87c-3.95-0.01-5.25-3.03-5.31-6.49c-0.06-3.58,0.91-6.94,5.18-7.09
			C169.58,1037.07,170.63,1040.36,170.97,1043.92z"/>
		<path d="M63.14,1043.18c-2.09,0-3.73,0-5.36,0c-1.8,0-3.6,0-5.66,0c0.41-4.05,1.53-7.1,5.73-7.16
			C61.92,1035.97,62.99,1038.83,63.14,1043.18z"/>
		<path d="M109.93,1044.04c0.01,4.87-2.63,8-6.81,8.08c-4.24,0.08-6.94-2.91-7.05-7.81c-0.12-5.1,2.7-8.45,7.02-8.35
			C107.24,1036.05,109.93,1039.23,109.93,1044.04z"/>
		<path d="M917.07,1046.22c-1.66,1.94-2.88,3.36-4.11,4.79c-0.97-1.79-2.67-3.56-2.7-5.37c-0.02-1.52,1.89-3.07,2.94-4.61
			C914.35,1042.57,915.48,1044.1,917.07,1046.22z"/>
		<path d="M902.37,1052.08c-1.45-1.64-2.34-2.65-3.22-3.65c0.87-0.76,1.89-2.26,2.57-2.12c1.15,0.23,2.4,1.35,2.96,2.43
			C904.92,1049.19,903.51,1050.5,902.37,1052.08z"/>
		<path d="M856.26,1052.53c-1.53-2.13-2.94-3.24-3.01-4.44c-0.06-0.99,1.44-2.09,2.25-3.13c1.12,0.9,2.94,1.66,3.17,2.76
			C858.9,1048.78,857.51,1050.19,856.26,1052.53z"/>
		<path d="M809.13,1043.57c1.28,2.24,2.6,3.53,2.54,4.75c-0.05,0.97-1.79,1.85-2.78,2.78c-0.94-1.13-2.41-2.17-2.62-3.42
			C806.11,1046.76,807.64,1045.57,809.13,1043.57z"/>
		<path d="M777.17,1047.8c-1.95,1.54-3.16,3.19-4.15,3.07c-1.08-0.13-2.52-1.8-2.75-3c-0.15-0.8,1.54-2.72,2.43-2.74
			C773.88,1045.11,775.08,1046.47,777.17,1047.8z"/>
		<path d="M398.1,465.04c0,13.5,0.02,27-0.02,40.5c-0.01,2.2,0.66,5.41-2.78,5.12c-1.14-0.1-2.87-3.31-2.88-5.11
			c-0.19-27.33-0.19-54.66,0.01-81.99c0.01-1.74,2.02-3.46,3.1-5.19c0.86,1.73,2.44,3.44,2.47,5.18
			C398.19,437.37,398.1,451.21,398.1,465.04z"/>
		<path d="M398.1,325.25c0,8.15,0.16,16.31-0.13,24.45c-0.06,1.59-1.88,3.11-2.89,4.66c-0.93-1.51-2.66-3.01-2.68-4.53
			c-0.2-16.13-0.21-32.27,0.01-48.4c0.02-1.57,1.98-3.11,3.03-4.66c0.88,1.51,2.48,3,2.53,4.54
			C398.24,309.27,398.1,317.26,398.1,325.25z"/>
	</g>
</g>
</svg>
